<?xml version="1.0" encoding="utf-8"?>
<?xml-stylesheet type="text/xsl" href="rss1.xsl"?>
<rss version="2.0" xmlns:atom="http://www.w3.org/2005/Atom" xmlns:content="http://purl.org/rss/1.0/modules/content/" xmlns:dc="http://purl.org/dc/elements/1.1/" xmlns:media="http://search.yahoo.com/mrss/">
<channel>
 <title>Getty</title>
 <link>http://www.gettyimg.com/</link>
 <atom:link href="http://www.gettyimg.com/" rel="self" type="application/rss+xml" />

 
                <item>
                <title><![CDATA[【Cinema Center】SERIES - Fraggle Rock: Back to the Rock - Season 1 - 1080p Apple TV+ WEB-DL DDP5.1 Atmos H.264-LAZY]]></title>
                <link><![CDATA[https://sharemania.us/threads/fraggle-rock-back-to-the-rock-season-1-1080p-apple-tv-web-dl-ddp5-1-atmos-h-264-lazy.242281/]]></link>
                <description><![CDATA[<article>
<blockquote class="messageText SelectQuoteContainer ugc baseHtml">
Fraggle Rock: Back to the Rock:<img src="https://artworks.thetvdb.com/banners/v4/series/412536/banners/660daba787d80.jpg" class="bbCodeImage LbImage" alt="[​IMG]" data-url="https://artworks.thetvdb.com/banners/v4/series/412536/banners/660daba787d80.jpg" style=""><br>
<br>
<div class="bbCodeBlock bbCodeQuote">
<aside>
<blockquote class="quoteContainer"><div class="quote"><i><b>Synopsis:</b></i><br>
Jim Henson's fun-loving, musical Fraggles are back! Join Gobo, Red, Wembley, Mokey, Boober and new Fraggle friends on hilarious, epic adventures about the magic that happens when we celebrate and care for our interconnected world.</div><div class="quoteExpand">Click to expand...</div></blockquote>
</aside>
</div>
<div class="ToggleTriggerAnchor bbCodeSpoilerContainer">
<button type="button" class="button bbCodeSpoilerButton ToggleTrigger Tooltip JsOnly" data-target="> .SpoilerTarget"><span>Spoiler: <span class="SpoilerTitle">MediaInfo</span></span></button>
<div class="SpoilerTarget bbCodeSpoilerText">General<br>
Unique ID : 313822215124437333065492208308130426017 (0xEC17F5CB3974196A05BFA6653D202CA1)<br>
Complete name : Fraggle.Rock.Back.to.the.Rock.S01E01.Pilot.1080p.ATVP.WEB-DL.DDP5.1.Atmos.H.264-LAZY.mkv<br>
Format : Matroska<br>
Format version : Version 4<br>
File size : 2.19 GiB<br>
Duration : 29 min 57 s<br>
Overall bit rate : 10.5 Mb/s<br>
Frame rate : 23.976 FPS<br>
Encoded date : 2024-04-05 19:16:33 UTC<br>
Writing application : mkvmerge v83.0 ('Circle Of Friends') 64-bit<br>
Writing library : libebml v1.4.5 + libmatroska v1.7.1<br>
<br>
Video<br>
ID : 1<br>
Format : AVC<br>
Format/Info : Advanced Video Codec<br>
Format profile : High@L4<br>
Format settings : CABAC / 4 Ref Frames<br>
Format settings, CABAC : Yes<br>
Format settings, Reference frames : 4 frames<br>
Format settings, Slice count : 8 slices per frame<br>
Codec ID : V_MPEG4/ISO/AVC<br>
Duration : 29 min 57 s<br>
Bit rate : 9 678 kb/s<br>
Width : 1 920 pixels<br>
Height : 1 080 pixels<br>
Display aspect ratio : 16:9<br>
Frame rate mode : Constant<br>
Frame rate : 23.976 (24000/1001) FPS<br>
Color space : YUV<br>
Chroma subsampling : 4:2:0<br>
Bit depth : 8 bits<br>
Scan type : Progressive<br>
Bits/(Pixel*Frame) : 0.195<br>
Stream size : 2.03 GiB (92%)<br>
Default : Yes<br>
Forced : No<br>
Color range : Limited<br>
Color primaries : BT.709<br>
Transfer characteristics : BT.709<br>
Matrix coefficients : BT.709<br>
<br>
Audio<br>
ID : 2<br>
Format : E-AC-3 JOC<br>
Format/Info : Enhanced AC-3 with Joint Object Coding<br>
Commercial name : Dolby Digital Plus with Dolby Atmos<br>
Codec ID : A_EAC3<br>
Duration : 29 min 57 s<br>
Bit rate mode : Constant<br>
Bit rate : 768 kb/s<br>
Channel(s) : 6 channels<br>
Channel layout : L R C LFE Ls Rs<br>
Sampling rate : 48.0 kHz<br>
Frame rate : 31.250 FPS (1536 SPF)<br>
Compression mode : Lossy<br>
Stream size : 165 MiB (7%)<br>
Language : English<br>
Service kind : Complete Main<br>
Default : Yes<br>
Forced : No<br>
Complexity index : 16<br>
Number of dynamic objects : 15<br>
Bed channel count : 1 channel<br>
Bed channel configuration : LFE<br>
<br>
Text #1<br>
ID : 3<br>
Format : UTF-8<br>
Codec ID : S_TEXT/UTF8<br>
Codec ID/Info : UTF-8 Plain Text<br>
Duration : 28 min 22 s<br>
Bit rate : 75 b/s<br>
Frame rate : 0.286 FPS<br>
Count of elements : 487<br>
Stream size : 15.7 KiB (0%)<br>
Language : English<br>
Default : No<br>
Forced : No<br>
<br>
Text #2<br>
ID : 4<br>
Format : UTF-8<br>
Codec ID : S_TEXT/UTF8<br>
Codec ID/Info : UTF-8 Plain Text<br>
Duration : 28 min 22 s<br>
Bit rate : 96 b/s<br>
Frame rate : 0.347 FPS<br>
Count of elements : 591<br>
Stream size : 20.1 KiB (0%)<br>
Title : SDH<br>
Language : English<br>
Default : No<br>
Forced : No<br>
<br>
Text #3<br>
ID : 5<br>
Format : UTF-8<br>
Codec ID : S_TEXT/UTF8<br>
Codec ID/Info : UTF-8 Plain Text<br>
Duration : 29 min 48 s<br>
Bit rate : 102 b/s<br>
Frame rate : 0.277 FPS<br>
Count of elements : 495<br>
Stream size : 22.4 KiB (0%)<br>
Language : Arabic<br>
Default : No<br>
Forced : No<br>
<br>
Text #4<br>
ID : 6<br>
Format : UTF-8<br>
Codec ID : S_TEXT/UTF8<br>
Codec ID/Info : UTF-8 Plain Text<br>
Duration : 28 min 22 s<br>
Bit rate : 122 b/s<br>
Frame rate : 0.347 FPS<br>
Count of elements : 591<br>
Stream size : 25.5 KiB (0%)<br>
Title : SDH<br>
Language : Arabic<br>
Default : No<br>
Forced : No<br>
<br>
Text #5<br>
ID : 7<br>
Format : UTF-8<br>
Codec ID : S_TEXT/UTF8<br>
Codec ID/Info : UTF-8 Plain Text<br>
Duration : 29 min 48 s<br>
Bit rate : 104 b/s<br>
Frame rate : 0.262 FPS<br>
Count of elements : 468<br>
Stream size : 22.8 KiB (0%)<br>
Language : Bulgarian<br>
Default : No<br>
Forced : No<br>
<br>
Text #6<br>
ID : 8<br>
Format : UTF-8<br>
Codec ID : S_TEXT/UTF8<br>
Codec ID/Info : UTF-8 Plain Text<br>
Duration : 29 min 48 s<br>
Bit rate : 135 b/s<br>
Frame rate : 0.327 FPS<br>
Count of elements : 584<br>
Stream size : 29.6 KiB (0%)<br>
Title : SDH<br>
Language : Bulgarian<br>
Default : No<br>
Forced : No<br>
<br>
Text #7<br>
ID : 9<br>
Format : UTF-8<br>
Codec ID : S_TEXT/UTF8<br>
Codec ID/Info : UTF-8 Plain Text<br>
Duration : 29 min 48 s<br>
Bit rate : 67 b/s<br>
Frame rate : 0.278 FPS<br>
Count of elements : 497<br>
Stream size : 14.6 KiB (0%)<br>
Title : Simplified, Mandarin<br>
Language : Chinese<br>
Default : No<br>
Forced : No<br>
<br>
Text #8<br>
ID : 10<br>
Format : UTF-8<br>
Codec ID : S_TEXT/UTF8<br>
Codec ID/Info : UTF-8 Plain Text<br>
Duration : 29 min 48 s<br>
Bit rate : 86 b/s<br>
Frame rate : 0.331 FPS<br>
Count of elements : 592<br>
Stream size : 19.0 KiB (0%)<br>
Title : Simplified, Mandarin (SDH)<br>
Language : Chinese<br>
Default : No<br>
Forced : No<br>
<br>
Text #9<br>
ID : 11<br>
Format : UTF-8<br>
Codec ID : S_TEXT/UTF8<br>
Codec ID/Info : UTF-8 Plain Text<br>
Duration : 29 min 48 s<br>
Bit rate : 67 b/s<br>
Frame rate : 0.278 FPS<br>
Count of elements : 497<br>
Stream size : 14.8 KiB (0%)<br>
Title : Traditional, Mandarin<br>
Language : Chinese<br>
Default : No<br>
Forced : No<br>
<br>
Text #10<br>
ID : 12<br>
Format : UTF-8<br>
Codec ID : S_TEXT/UTF8<br>
Codec ID/Info : UTF-8 Plain Text<br>
Duration : 28 min 22 s<br>
Bit rate : 95 b/s<br>
Frame rate : 0.347 FPS<br>
Count of elements : 591<br>
Stream size : 19.8 KiB (0%)<br>
Title : Traditional, Mandarin (SDH)<br>
Language : Chinese<br>
Default : No<br>
Forced : No<br>
<br>
Text #11<br>
ID : 13<br>
Format : UTF-8<br>
Codec ID : S_TEXT/UTF8<br>
Codec ID/Info : UTF-8 Plain Text<br>
Duration : 29 min 48 s<br>
Bit rate : 63 b/s<br>
Frame rate : 0.259 FPS<br>
Count of elements : 463<br>
Stream size : 13.8 KiB (0%)<br>
Language : Czech<br>
Default : No<br>
Forced : No<br>
<br>
Text #12<br>
ID : 14<br>
Format : UTF-8<br>
Codec ID : S_TEXT/UTF8<br>
Codec ID/Info : UTF-8 Plain Text<br>
Duration : 29 min 48 s<br>
Bit rate : 81 b/s<br>
Frame rate : 0.313 FPS<br>
Count of elements : 559<br>
Stream size : 17.7 KiB (0%)<br>
Title : SDH<br>
Language : Czech<br>
Default : No<br>
Forced : No<br>
<br>
Text #13<br>
ID : 15<br>
Format : UTF-8<br>
Codec ID : S_TEXT/UTF8<br>
Codec ID/Info : UTF-8 Plain Text<br>
Duration : 29 min 48 s<br>
Bit rate : 60 b/s<br>
Frame rate : 0.273 FPS<br>
Count of elements : 489<br>
Stream size : 13.3 KiB (0%)<br>
Language : Danish<br>
Default : No<br>
Forced : No<br>
<br>
Text #14<br>
ID : 16<br>
Format : UTF-8<br>
Codec ID : S_TEXT/UTF8<br>
Codec ID/Info : UTF-8 Plain Text<br>
Duration : 28 min 22 s<br>
Bit rate : 88 b/s<br>
Frame rate : 0.310 FPS<br>
Count of elements : 528<br>
Stream size : 18.3 KiB (0%)<br>
Title : SDH<br>
Language : Danish<br>
Default : No<br>
Forced : No<br>
<br>
Text #15<br>
ID : 17<br>
Format : UTF-8<br>
Codec ID : S_TEXT/UTF8<br>
Codec ID/Info : UTF-8 Plain Text<br>
Duration : 29 min 33 s<br>
Bit rate : 76 b/s<br>
Frame rate : 0.263 FPS<br>
Count of elements : 466<br>
Stream size : 16.6 KiB (0%)<br>
Language : German<br>
Default : No<br>
Forced : No<br>
<br>
Text #16<br>
ID : 18<br>
Format : UTF-8<br>
Codec ID : S_TEXT/UTF8<br>
Codec ID/Info : UTF-8 Plain Text<br>
Duration : 28 min 22 s<br>
Bit rate : 109 b/s<br>
Frame rate : 0.361 FPS<br>
Count of elements : 614<br>
Stream size : 22.8 KiB (0%)<br>
Title : SDH<br>
Language : German<br>
Default : No<br>
Forced : No<br>
<br>
Text #17<br>
ID : 19<br>
Format : UTF-8<br>
Codec ID : S_TEXT/UTF8<br>
Codec ID/Info : UTF-8 Plain Text<br>
Duration : 29 min 48 s<br>
Bit rate : 113 b/s<br>
Frame rate : 0.268 FPS<br>
Count of elements : 479<br>
Stream size : 24.7 KiB (0%)<br>
Language : Greek<br>
Default : No<br>
Forced : No<br>
<br>
Text #18<br>
ID : 20<br>
Format : UTF-8<br>
Codec ID : S_TEXT/UTF8<br>
Codec ID/Info : UTF-8 Plain Text<br>
Duration : 29 min 48 s<br>
Bit rate : 146 b/s<br>
Frame rate : 0.327 FPS<br>
Count of elements : 584<br>
Stream size : 32.0 KiB (0%)<br>
Title : SDH<br>
Language : Greek<br>
Default : No<br>
Forced : No<br>
<br>
Text #19<br>
ID : 21<br>
Format : UTF-8<br>
Codec ID : S_TEXT/UTF8<br>
Codec ID/Info : UTF-8 Plain Text<br>
Duration : 29 min 48 s<br>
Bit rate : 73 b/s<br>
Frame rate : 0.276 FPS<br>
Count of elements : 494<br>
Stream size : 15.9 KiB (0%)<br>
Title : Latin American<br>
Language : Spanish<br>
Default : No<br>
Forced : No<br>
<br>
Text #20<br>
ID : 22<br>
Format : UTF-8<br>
Codec ID : S_TEXT/UTF8<br>
Codec ID/Info : UTF-8 Plain Text<br>
Duration : 28 min 22 s<br>
Bit rate : 98 b/s<br>
Frame rate : 0.352 FPS<br>
Count of elements : 600<br>
Stream size : 20.6 KiB (0%)<br>
Title : Latin American (SDH)<br>
Language : Spanish<br>
Default : No<br>
Forced : No<br>
<br>
Text #21<br>
ID : 23<br>
Format : UTF-8<br>
Codec ID : S_TEXT/UTF8<br>
Codec ID/Info : UTF-8 Plain Text<br>
Duration : 29 min 48 s<br>
Bit rate : 78 b/s<br>
Frame rate : 0.280 FPS<br>
Count of elements : 501<br>
Stream size : 17.1 KiB (0%)<br>
Title : European<br>
Language : Spanish<br>
Default : No<br>
Forced : No<br>
<br>
Text #22<br>
ID : 24<br>
Format : UTF-8<br>
Codec ID : S_TEXT/UTF8<br>
Codec ID/Info : UTF-8 Plain Text<br>
Duration : 28 min 22 s<br>
Bit rate : 102 b/s<br>
Frame rate : 0.359 FPS<br>
Count of elements : 611<br>
Stream size : 21.3 KiB (0%)<br>
Title : European (SDH)<br>
Language : Spanish<br>
Default : No<br>
Forced : No<br>
<br>
Text #23<br>
ID : 25<br>
Format : UTF-8<br>
Codec ID : S_TEXT/UTF8<br>
Codec ID/Info : UTF-8 Plain Text<br>
Duration : 29 min 48 s<br>
Bit rate : 62 b/s<br>
Frame rate : 0.255 FPS<br>
Count of elements : 456<br>
Stream size : 13.6 KiB (0%)<br>
Language : Estonian<br>
Default : No<br>
Forced : No<br>
<br>
Text #24<br>
ID : 26<br>
Format : UTF-8<br>
Codec ID : S_TEXT/UTF8<br>
Codec ID/Info : UTF-8 Plain Text<br>
Duration : 29 min 48 s<br>
Bit rate : 84 b/s<br>
Frame rate : 0.313 FPS<br>
Count of elements : 560<br>
Stream size : 18.4 KiB (0%)<br>
Title : SDH<br>
Language : Estonian<br>
Default : No<br>
Forced : No<br>
<br>
Text #25<br>
ID : 27<br>
Format : UTF-8<br>
Codec ID : S_TEXT/UTF8<br>
Codec ID/Info : UTF-8 Plain Text<br>
Duration : 29 min 48 s<br>
Bit rate : 67 b/s<br>
Frame rate : 0.276 FPS<br>
Count of elements : 494<br>
Stream size : 14.7 KiB (0%)<br>
Language : Finnish<br>
Default : No<br>
Forced : No<br>
<br>
Text #26<br>
ID : 28<br>
Format : UTF-8<br>
Codec ID : S_TEXT/UTF8<br>
Codec ID/Info : UTF-8 Plain Text<br>
Duration : 28 min 22 s<br>
Bit rate : 95 b/s<br>
Frame rate : 0.345 FPS<br>
Count of elements : 588<br>
Stream size : 19.8 KiB (0%)<br>
Title : SDH<br>
Language : Finnish<br>
Default : No<br>
Forced : No<br>
<br>
Text #27<br>
ID : 29<br>
Format : UTF-8<br>
Codec ID : S_TEXT/UTF8<br>
Codec ID/Info : UTF-8 Plain Text<br>
Duration : 29 min 41 s<br>
Bit rate : 68 b/s<br>
Frame rate : 0.271 FPS<br>
Count of elements : 482<br>
Stream size : 14.9 KiB (0%)<br>
Title : Canadian<br>
Language : French<br>
Default : No<br>
Forced : No<br>
<br>
Text #28<br>
ID : 30<br>
Format : UTF-8<br>
Codec ID : S_TEXT/UTF8<br>
Codec ID/Info : UTF-8 Plain Text<br>
Duration : 29 min 44 s<br>
Bit rate : 88 b/s<br>
Frame rate : 0.344 FPS<br>
Count of elements : 614<br>
Stream size : 19.2 KiB (0%)<br>
Title : Canadian (SDH)<br>
Language : French<br>
Default : No<br>
Forced : No<br>
<br>
Text #29<br>
ID : 31<br>
Format : UTF-8<br>
Codec ID : S_TEXT/UTF8<br>
Codec ID/Info : UTF-8 Plain Text<br>
Duration : 29 min 41 s<br>
Bit rate : 68 b/s<br>
Frame rate : 0.271 FPS<br>
Count of elements : 482<br>
Stream size : 14.9 KiB (0%)<br>
Language : French<br>
Default : No<br>
Forced : No<br>
<br>
Text #30<br>
ID : 32<br>
Format : UTF-8<br>
Codec ID : S_TEXT/UTF8<br>
Codec ID/Info : UTF-8 Plain Text<br>
Duration : 29 min 44 s<br>
Bit rate : 88 b/s<br>
Frame rate : 0.344 FPS<br>
Count of elements : 614<br>
Stream size : 19.2 KiB (0%)<br>
Title : SDH<br>
Language : French<br>
Default : No<br>
Forced : No<br>
<br>
Text #31<br>
ID : 33<br>
Format : UTF-8<br>
Codec ID : S_TEXT/UTF8<br>
Codec ID/Info : UTF-8 Plain Text<br>
Duration : 29 min 48 s<br>
Bit rate : 98 b/s<br>
Frame rate : 0.278 FPS<br>
Count of elements : 497<br>
Stream size : 21.5 KiB (0%)<br>
Language : Hebrew<br>
Default : No<br>
Forced : No<br>
<br>
Text #32<br>
ID : 34<br>
Format : UTF-8<br>
Codec ID : S_TEXT/UTF8<br>
Codec ID/Info : UTF-8 Plain Text<br>
Duration : 29 min 48 s<br>
Bit rate : 120 b/s<br>
Frame rate : 0.332 FPS<br>
Count of elements : 593<br>
Stream size : 26.4 KiB (0%)<br>
Title : SDH<br>
Language : Hebrew<br>
Default : No<br>
Forced : No<br>
<br>
Text #33<br>
ID : 35<br>
Format : UTF-8<br>
Codec ID : S_TEXT/UTF8<br>
Codec ID/Info : UTF-8 Plain Text<br>
Duration : 28 min 22 s<br>
Bit rate : 193 b/s<br>
Frame rate : 0.292 FPS<br>
Count of elements : 497<br>
Stream size : 40.1 KiB (0%)<br>
Language : Hindi<br>
Default : No<br>
Forced : No<br>
<br>
Text #34<br>
ID : 36<br>
Format : UTF-8<br>
Codec ID : S_TEXT/UTF8<br>
Codec ID/Info : UTF-8 Plain Text<br>
Duration : 28 min 22 s<br>
Bit rate : 244 b/s<br>
Frame rate : 0.348 FPS<br>
Count of elements : 592<br>
Stream size : 50.8 KiB (0%)<br>
Title : SDH<br>
Language : Hindi<br>
Default : No<br>
Forced : No<br>
<br>
Text #35<br>
ID : 37<br>
Format : UTF-8<br>
Codec ID : S_TEXT/UTF8<br>
Codec ID/Info : UTF-8 Plain Text<br>
Duration : 29 min 48 s<br>
Bit rate : 69 b/s<br>
Frame rate : 0.277 FPS<br>
Count of elements : 496<br>
Stream size : 15.1 KiB (0%)<br>
Language : Hungarian<br>
Default : No<br>
Forced : No<br>
<br>
Text #36<br>
ID : 38<br>
Format : UTF-8<br>
Codec ID : S_TEXT/UTF8<br>
Codec ID/Info : UTF-8 Plain Text<br>
Duration : 29 min 48 s<br>
Bit rate : 89 b/s<br>
Frame rate : 0.330 FPS<br>
Count of elements : 591<br>
Stream size : 19.6 KiB (0%)<br>
Title : SDH<br>
Language : Hungarian<br>
Default : No<br>
Forced : No<br>
<br>
Text #37<br>
ID : 39<br>
Format : UTF-8<br>
Codec ID : S_TEXT/UTF8<br>
Codec ID/Info : UTF-8 Plain Text<br>
Duration : 29 min 48 s<br>
Bit rate : 77 b/s<br>
Frame rate : 0.277 FPS<br>
Count of elements : 496<br>
Stream size : 16.9 KiB (0%)<br>
Language : Indonesian<br>
Default : No<br>
Forced : No<br>
<br>
Text #38<br>
ID : 40<br>
Format : UTF-8<br>
Codec ID : S_TEXT/UTF8<br>
Codec ID/Info : UTF-8 Plain Text<br>
Duration : 29 min 48 s<br>
Bit rate : 98 b/s<br>
Frame rate : 0.331 FPS<br>
Count of elements : 592<br>
Stream size : 21.6 KiB (0%)<br>
Title : SDH<br>
Language : Indonesian<br>
Default : No<br>
Forced : No<br>
<br>
Text #39<br>
ID : 41<br>
Format : UTF-8<br>
Codec ID : S_TEXT/UTF8<br>
Codec ID/Info : UTF-8 Plain Text<br>
Duration : 29 min 36 s<br>
Bit rate : 82 b/s<br>
Frame rate : 0.272 FPS<br>
Count of elements : 483<br>
Stream size : 17.8 KiB (0%)<br>
Language : Italian<br>
Default : No<br>
Forced : No<br>
<br>
Text #40<br>
ID : 42<br>
Format : UTF-8<br>
Codec ID : S_TEXT/UTF8<br>
Codec ID/Info : UTF-8 Plain Text<br>
Duration : 29 min 47 s<br>
Bit rate : 93 b/s<br>
Frame rate : 0.313 FPS<br>
Count of elements : 560<br>
Stream size : 20.5 KiB (0%)<br>
Title : SDH<br>
Language : Italian<br>
Default : No<br>
Forced : No<br>
<br>
Text #41<br>
ID : 43<br>
Format : UTF-8<br>
Codec ID : S_TEXT/UTF8<br>
Codec ID/Info : UTF-8 Plain Text<br>
Duration : 29 min 48 s<br>
Bit rate : 65 b/s<br>
Frame rate : 0.281 FPS<br>
Count of elements : 503<br>
Stream size : 14.4 KiB (0%)<br>
Language : Japanese<br>
Default : No<br>
Forced : No<br>
<br>
Text #42<br>
ID : 44<br>
Format : UTF-8<br>
Codec ID : S_TEXT/UTF8<br>
Codec ID/Info : UTF-8 Plain Text<br>
Duration : 28 min 26 s<br>
Bit rate : 179 b/s<br>
Frame rate : 0.513 FPS<br>
Count of elements : 875<br>
Stream size : 37.4 KiB (0%)<br>
Title : SDH<br>
Language : Japanese<br>
Default : No<br>
Forced : No<br>
<br>
Text #43<br>
ID : 45<br>
Format : UTF-8<br>
Codec ID : S_TEXT/UTF8<br>
Codec ID/Info : UTF-8 Plain Text<br>
Duration : 29 min 48 s<br>
Bit rate : 78 b/s<br>
Frame rate : 0.275 FPS<br>
Count of elements : 491<br>
Stream size : 17.2 KiB (0%)<br>
Language : Korean<br>
Default : No<br>
Forced : No<br>
<br>
Text #44<br>
ID : 46<br>
Format : UTF-8<br>
Codec ID : S_TEXT/UTF8<br>
Codec ID/Info : UTF-8 Plain Text<br>
Duration : 28 min 22 s<br>
Bit rate : 115 b/s<br>
Frame rate : 0.348 FPS<br>
Count of elements : 592<br>
Stream size : 24.0 KiB (0%)<br>
Title : SDH<br>
Language : Korean<br>
Default : No<br>
Forced : No<br>
<br>
Text #45<br>
ID : 47<br>
Format : UTF-8<br>
Codec ID : S_TEXT/UTF8<br>
Codec ID/Info : UTF-8 Plain Text<br>
Duration : 29 min 48 s<br>
Bit rate : 70 b/s<br>
Frame rate : 0.278 FPS<br>
Count of elements : 497<br>
Stream size : 15.4 KiB (0%)<br>
Language : Lithuanian<br>
Default : No<br>
Forced : No<br>
<br>
Text #46<br>
ID : 48<br>
Format : UTF-8<br>
Codec ID : S_TEXT/UTF8<br>
Codec ID/Info : UTF-8 Plain Text<br>
Duration : 29 min 48 s<br>
Bit rate : 92 b/s<br>
Frame rate : 0.331 FPS<br>
Count of elements : 592<br>
Stream size : 20.1 KiB (0%)<br>
Title : SDH<br>
Language : Lithuanian<br>
Default : No<br>
Forced : No<br>
<br>
Text #47<br>
ID : 49<br>
Format : UTF-8<br>
Codec ID : S_TEXT/UTF8<br>
Codec ID/Info : UTF-8 Plain Text<br>
Duration : 29 min 48 s<br>
Bit rate : 70 b/s<br>
Frame rate : 0.273 FPS<br>
Count of elements : 489<br>
Stream size : 15.5 KiB (0%)<br>
Language : Latvian<br>
Default : No<br>
Forced : No<br>
<br>
Text #48<br>
ID : 50<br>
Format : UTF-8<br>
Codec ID : S_TEXT/UTF8<br>
Codec ID/Info : UTF-8 Plain Text<br>
Duration : 29 min 48 s<br>
Bit rate : 92 b/s<br>
Frame rate : 0.329 FPS<br>
Count of elements : 588<br>
Stream size : 20.1 KiB (0%)<br>
Title : SDH<br>
Language : Latvian<br>
Default : No<br>
Forced : No<br>
<br>
Text #49<br>
ID : 51<br>
Format : UTF-8<br>
Codec ID : S_TEXT/UTF8<br>
Codec ID/Info : UTF-8 Plain Text<br>
Duration : 29 min 48 s<br>
Bit rate : 73 b/s<br>
Frame rate : 0.278 FPS<br>
Count of elements : 497<br>
Stream size : 15.9 KiB (0%)<br>
Language : Malay<br>
Default : No<br>
Forced : No<br>
<br>
Text #50<br>
ID : 52<br>
Format : UTF-8<br>
Codec ID : S_TEXT/UTF8<br>
Codec ID/Info : UTF-8 Plain Text<br>
Duration : 29 min 48 s<br>
Bit rate : 95 b/s<br>
Frame rate : 0.331 FPS<br>
Count of elements : 592<br>
Stream size : 20.8 KiB (0%)<br>
Title : SDH<br>
Language : Malay<br>
Default : No<br>
Forced : No<br>
<br>
Text #51<br>
ID : 53<br>
Format : UTF-8<br>
Codec ID : S_TEXT/UTF8<br>
Codec ID/Info : UTF-8 Plain Text<br>
Duration : 29 min 48 s<br>
Bit rate : 64 b/s<br>
Frame rate : 0.224 FPS<br>
Count of elements : 400<br>
Stream size : 14.0 KiB (0%)<br>
Language : Dutch<br>
Default : No<br>
Forced : No<br>
<br>
Text #52<br>
ID : 54<br>
Format : UTF-8<br>
Codec ID : S_TEXT/UTF8<br>
Codec ID/Info : UTF-8 Plain Text<br>
Duration : 28 min 22 s<br>
Bit rate : 87 b/s<br>
Frame rate : 0.297 FPS<br>
Count of elements : 505<br>
Stream size : 18.1 KiB (0%)<br>
Title : SDH<br>
Language : Dutch<br>
Default : No<br>
Forced : No<br>
<br>
Text #53<br>
ID : 55<br>
Format : UTF-8<br>
Codec ID : S_TEXT/UTF8<br>
Codec ID/Info : UTF-8 Plain Text<br>
Duration : 29 min 48 s<br>
Bit rate : 68 b/s<br>
Frame rate : 0.272 FPS<br>
Count of elements : 486<br>
Stream size : 15.0 KiB (0%)<br>
Title : Belgian<br>
Language : Dutch<br>
Default : No<br>
Forced : No<br>
<br>
Text #54<br>
ID : 56<br>
Format : UTF-8<br>
Codec ID : S_TEXT/UTF8<br>
Codec ID/Info : UTF-8 Plain Text<br>
Duration : 28 min 18 s<br>
Bit rate : 89 b/s<br>
Frame rate : 0.339 FPS<br>
Count of elements : 576<br>
Stream size : 18.5 KiB (0%)<br>
Title : Belgian (SDH)<br>
Language : Dutch<br>
Default : No<br>
Forced : No<br>
<br>
Text #55<br>
ID : 57<br>
Format : UTF-8<br>
Codec ID : S_TEXT/UTF8<br>
Codec ID/Info : UTF-8 Plain Text<br>
Duration : 29 min 48 s<br>
Bit rate : 68 b/s<br>
Frame rate : 0.254 FPS<br>
Count of elements : 454<br>
Stream size : 15.0 KiB (0%)<br>
Language : Norwegian<br>
Default : No<br>
Forced : No<br>
<br>
Text #56<br>
ID : 58<br>
Format : UTF-8<br>
Codec ID : S_TEXT/UTF8<br>
Codec ID/Info : UTF-8 Plain Text<br>
Duration : 28 min 22 s<br>
Bit rate : 87 b/s<br>
Frame rate : 0.299 FPS<br>
Count of elements : 509<br>
Stream size : 18.1 KiB (0%)<br>
Title : SDH<br>
Language : Norwegian<br>
Default : No<br>
Forced : No<br>
<br>
Text #57<br>
ID : 59<br>
Format : UTF-8<br>
Codec ID : S_TEXT/UTF8<br>
Codec ID/Info : UTF-8 Plain Text<br>
Duration : 29 min 44 s<br>
Bit rate : 60 b/s<br>
Frame rate : 0.255 FPS<br>
Count of elements : 455<br>
Stream size : 13.2 KiB (0%)<br>
Language : Polish<br>
Default : No<br>
Forced : No<br>
<br>
Text #58<br>
ID : 60<br>
Format : UTF-8<br>
Codec ID : S_TEXT/UTF8<br>
Codec ID/Info : UTF-8 Plain Text<br>
Duration : 28 min 22 s<br>
Bit rate : 79 b/s<br>
Frame rate : 0.314 FPS<br>
Count of elements : 534<br>
Stream size : 16.5 KiB (0%)<br>
Title : SDH<br>
Language : Polish<br>
Default : No<br>
Forced : No<br>
<br>
Text #59<br>
ID : 61<br>
Format : UTF-8<br>
Codec ID : S_TEXT/UTF8<br>
Codec ID/Info : UTF-8 Plain Text<br>
Duration : 29 min 48 s<br>
Bit rate : 67 b/s<br>
Frame rate : 0.269 FPS<br>
Count of elements : 481<br>
Stream size : 14.7 KiB (0%)<br>
Language : Portuguese<br>
Default : No<br>
Forced : No<br>
<br>
Text #60<br>
ID : 62<br>
Format : UTF-8<br>
Codec ID : S_TEXT/UTF8<br>
Codec ID/Info : UTF-8 Plain Text<br>
Duration : 29 min 48 s<br>
Bit rate : 87 b/s<br>
Frame rate : 0.327 FPS<br>
Count of elements : 584<br>
Stream size : 19.0 KiB (0%)<br>
Title : SDH<br>
Language : Portuguese<br>
Default : No<br>
Forced : No<br>
<br>
Text #61<br>
ID : 63<br>
Format : UTF-8<br>
Codec ID : S_TEXT/UTF8<br>
Codec ID/Info : UTF-8 Plain Text<br>
Duration : 29 min 48 s<br>
Bit rate : 66 b/s<br>
Frame rate : 0.275 FPS<br>
Count of elements : 492<br>
Stream size : 14.5 KiB (0%)<br>
Title : Brazilian<br>
Language : Portuguese<br>
Default : No<br>
Forced : No<br>
<br>
Text #62<br>
ID : 64<br>
Format : UTF-8<br>
Codec ID : S_TEXT/UTF8<br>
Codec ID/Info : UTF-8 Plain Text<br>
Duration : 28 min 22 s<br>
Bit rate : 94 b/s<br>
Frame rate : 0.341 FPS<br>
Count of elements : 581<br>
Stream size : 19.7 KiB (0%)<br>
Title : Brazilian (SDH)<br>
Language : Portuguese<br>
Default : No<br>
Forced : No<br>
<br>
Text #63<br>
ID : 65<br>
Format : UTF-8<br>
Codec ID : S_TEXT/UTF8<br>
Codec ID/Info : UTF-8 Plain Text<br>
Duration : 29 min 54 s<br>
Bit rate : 114 b/s<br>
Frame rate : 0.278 FPS<br>
Count of elements : 498<br>
Stream size : 25.2 KiB (0%)<br>
Language : Russian<br>
Default : No<br>
Forced : No<br>
<br>
Text #64<br>
ID : 66<br>
Format : UTF-8<br>
Codec ID : S_TEXT/UTF8<br>
Codec ID/Info : UTF-8 Plain Text<br>
Duration : 28 min 22 s<br>
Bit rate : 151 b/s<br>
Frame rate : 0.348 FPS<br>
Count of elements : 592<br>
Stream size : 31.5 KiB (0%)<br>
Title : SDH<br>
Language : Russian<br>
Default : No<br>
Forced : No<br>
<br>
Text #65<br>
ID : 67<br>
Format : UTF-8<br>
Codec ID : S_TEXT/UTF8<br>
Codec ID/Info : UTF-8 Plain Text<br>
Duration : 29 min 48 s<br>
Bit rate : 68 b/s<br>
Frame rate : 0.278 FPS<br>
Count of elements : 497<br>
Stream size : 15.0 KiB (0%)<br>
Language : Slovak<br>
Default : No<br>
Forced : No<br>
<br>
Text #66<br>
ID : 68<br>
Format : UTF-8<br>
Codec ID : S_TEXT/UTF8<br>
Codec ID/Info : UTF-8 Plain Text<br>
Duration : 29 min 48 s<br>
Bit rate : 86 b/s<br>
Frame rate : 0.331 FPS<br>
Count of elements : 592<br>
Stream size : 18.9 KiB (0%)<br>
Title : SDH<br>
Language : Slovak<br>
Default : No<br>
Forced : No<br>
<br>
Text #67<br>
ID : 69<br>
Format : UTF-8<br>
Codec ID : S_TEXT/UTF8<br>
Codec ID/Info : UTF-8 Plain Text<br>
Duration : 29 min 48 s<br>
Bit rate : 57 b/s<br>
Frame rate : 0.263 FPS<br>
Count of elements : 471<br>
Stream size : 12.5 KiB (0%)<br>
Language : Slovenian<br>
Default : No<br>
Forced : No<br>
<br>
Text #68<br>
ID : 70<br>
Format : UTF-8<br>
Codec ID : S_TEXT/UTF8<br>
Codec ID/Info : UTF-8 Plain Text<br>
Duration : 29 min 48 s<br>
Bit rate : 72 b/s<br>
Frame rate : 0.313 FPS<br>
Count of elements : 560<br>
Stream size : 15.9 KiB (0%)<br>
Title : SDH<br>
Language : Slovenian<br>
Default : No<br>
Forced : No<br>
<br>
Text #69<br>
ID : 71<br>
Format : UTF-8<br>
Codec ID : S_TEXT/UTF8<br>
Codec ID/Info : UTF-8 Plain Text<br>
Duration : 29 min 48 s<br>
Bit rate : 69 b/s<br>
Frame rate : 0.266 FPS<br>
Count of elements : 476<br>
Stream size : 15.2 KiB (0%)<br>
Language : Swedish<br>
Default : No<br>
Forced : No<br>
<br>
Text #70<br>
ID : 72<br>
Format : UTF-8<br>
Codec ID : S_TEXT/UTF8<br>
Codec ID/Info : UTF-8 Plain Text<br>
Duration : 28 min 22 s<br>
Bit rate : 94 b/s<br>
Frame rate : 0.338 FPS<br>
Count of elements : 576<br>
Stream size : 19.6 KiB (0%)<br>
Title : SDH<br>
Language : Swedish<br>
Default : No<br>
Forced : No<br>
<br>
Text #71<br>
ID : 73<br>
Format : UTF-8<br>
Codec ID : S_TEXT/UTF8<br>
Codec ID/Info : UTF-8 Plain Text<br>
Duration : 29 min 48 s<br>
Bit rate : 230 b/s<br>
Frame rate : 0.278 FPS<br>
Count of elements : 497<br>
Stream size : 50.3 KiB (0%)<br>
Language : Tamil<br>
Default : No<br>
Forced : No<br>
<br>
Text #72<br>
ID : 74<br>
Format : UTF-8<br>
Codec ID : S_TEXT/UTF8<br>
Codec ID/Info : UTF-8 Plain Text<br>
Duration : 29 min 48 s<br>
Bit rate : 284 b/s<br>
Frame rate : 0.331 FPS<br>
Count of elements : 592<br>
Stream size : 62.1 KiB (0%)<br>
Title : SDH<br>
Language : Tamil<br>
Default : No<br>
Forced : No<br>
<br>
Text #73<br>
ID : 75<br>
Format : UTF-8<br>
Codec ID : S_TEXT/UTF8<br>
Codec ID/Info : UTF-8 Plain Text<br>
Duration : 29 min 48 s<br>
Bit rate : 202 b/s<br>
Frame rate : 0.278 FPS<br>
Count of elements : 497<br>
Stream size : 44.1 KiB (0%)<br>
Language : Telugu<br>
Default : No<br>
Forced : No<br>
<br>
Text #74<br>
ID : 76<br>
Format : UTF-8<br>
Codec ID : S_TEXT/UTF8<br>
Codec ID/Info : UTF-8 Plain Text<br>
Duration : 29 min 48 s<br>
Bit rate : 254 b/s<br>
Frame rate : 0.331 FPS<br>
Count of elements : 592<br>
Stream size : 55.6 KiB (0%)<br>
Title : SDH<br>
Language : Telugu<br>
Default : No<br>
Forced : No<br>
<br>
Text #75<br>
ID : 77<br>
Format : UTF-8<br>
Codec ID : S_TEXT/UTF8<br>
Codec ID/Info : UTF-8 Plain Text<br>
Duration : 29 min 48 s<br>
Bit rate : 159 b/s<br>
Frame rate : 0.278 FPS<br>
Count of elements : 497<br>
Stream size : 34.9 KiB (0%)<br>
Language : Thai<br>
Default : No<br>
Forced : No<br>
<br>
Text #76<br>
ID : 78<br>
Format : UTF-8<br>
Codec ID : S_TEXT/UTF8<br>
Codec ID/Info : UTF-8 Plain Text<br>
Duration : 28 min 22 s<br>
Bit rate : 212 b/s<br>
Frame rate : 0.347 FPS<br>
Count of elements : 591<br>
Stream size : 44.1 KiB (0%)<br>
Title : SDH<br>
Language : Thai<br>
Default : No<br>
Forced : No<br>
<br>
Text #77<br>
ID : 79<br>
Format : UTF-8<br>
Codec ID : S_TEXT/UTF8<br>
Codec ID/Info : UTF-8 Plain Text<br>
Duration : 29 min 48 s<br>
Bit rate : 75 b/s<br>
Frame rate : 0.277 FPS<br>
Count of elements : 495<br>
Stream size : 16.5 KiB (0%)<br>
Language : Turkish<br>
Default : No<br>
Forced : No<br>
<br>
Text #78<br>
ID : 80<br>
Format : UTF-8<br>
Codec ID : S_TEXT/UTF8<br>
Codec ID/Info : UTF-8 Plain Text<br>
Duration : 28 min 22 s<br>
Bit rate : 105 b/s<br>
Frame rate : 0.347 FPS<br>
Count of elements : 591<br>
Stream size : 22.0 KiB (0%)<br>
Title : SDH<br>
Language : Turkish<br>
Default : No<br>
Forced : No<br>
<br>
Text #79<br>
ID : 81<br>
Format : UTF-8<br>
Codec ID : S_TEXT/UTF8<br>
Codec ID/Info : UTF-8 Plain Text<br>
Duration : 29 min 48 s<br>
Bit rate : 105 b/s<br>
Frame rate : 0.277 FPS<br>
Count of elements : 496<br>
Stream size : 23.1 KiB (0%)<br>
Language : Ukrainian<br>
Default : No<br>
Forced : No<br>
<br>
Text #80<br>
ID : 82<br>
Format : UTF-8<br>
Codec ID : S_TEXT/UTF8<br>
Codec ID/Info : UTF-8 Plain Text<br>
Duration : 29 min 48 s<br>
Bit rate : 130 b/s<br>
Frame rate : 0.330 FPS<br>
Count of elements : 591<br>
Stream size : 28.5 KiB (0%)<br>
Title : SDH<br>
Language : Ukrainian<br>
Default : No<br>
Forced : No<br>
<br>
Text #81<br>
ID : 83<br>
Format : UTF-8<br>
Codec ID : S_TEXT/UTF8<br>
Codec ID/Info : UTF-8 Plain Text<br>
Duration : 29 min 48 s<br>
Bit rate : 99 b/s<br>
Frame rate : 0.278 FPS<br>
Count of elements : 498<br>
Stream size : 21.7 KiB (0%)<br>
Language : Vietnamese<br>
Default : No<br>
Forced : No<br>
<br>
Text #82<br>
ID : 84<br>
Format : UTF-8<br>
Codec ID : S_TEXT/UTF8<br>
Codec ID/Info : UTF-8 Plain Text<br>
Duration : 28 min 22 s<br>
Bit rate : 137 b/s<br>
Frame rate : 0.348 FPS<br>
Count of elements : 592<br>
Stream size : 28.6 KiB (0%)<br>
Title : SDH<br>
Language : Vietnamese<br>
Default : No<br>
Forced : No<br>
<br>
Text #83<br>
ID : 85<br>
Format : UTF-8<br>
Codec ID : S_TEXT/UTF8<br>
Codec ID/Info : UTF-8 Plain Text<br>
Duration : 29 min 48 s<br>
Bit rate : 68 b/s<br>
Frame rate : 0.278 FPS<br>
Count of elements : 498<br>
Stream size : 15.0 KiB (0%)<br>
Title : Traditional, Cantonese<br>
Language : Chinese<br>
Default : No<br>
Forced : No<br>
<br>
Text #84<br>
ID : 86<br>
Format : UTF-8<br>
Codec ID : S_TEXT/UTF8<br>
Codec ID/Info : UTF-8 Plain Text<br>
Duration : 28 min 22 s<br>
Bit rate : 94 b/s<br>
Frame rate : 0.348 FPS<br>
Count of elements : 592<br>
Stream size : 19.7 KiB (0%)<br>
Title : Traditional, Cantonese (SDH)<br>
Language : Chinese<br>
Default : No<br>
Forced : No</div>
</div><br>
Screenshots:<br>
<img src="https://ptpimg.me/ex0kk1.jpg" class="bbCodeImage LbImage" alt="[​IMG]" data-url="https://ptpimg.me/ex0kk1.jpg" style=""> <br>
<div class="bbCodeBlock bbCodeVfcHH HiddenContent">
<div class="attribution type">Hidden Content:</div>
<blockquote>You must either reply or click 'Like' to see the hidden information contained here.</blockquote>
</div>
<div class="messageTextEndMarker">&nbsp;</div>
</blockquote>
</article>]]></description>
                <author><![CDATA[LazyRips]]></author>
                </item>

                
                <item>
                <title><![CDATA[【Albums (lossless)】FLAC - Linkin Park - Reanimation [Qobuz 16bits/44.1kHz]]]></title>
                <link><![CDATA[https://sharemania.us/threads/linkin-park-reanimation-qobuz-16bits-44-1khz.242280/]]></link>
                <description><![CDATA[<article>
<blockquote class="messageText SelectQuoteContainer ugc baseHtml">
<span style="font-size: 22px"><b>Linkin Park - Reanimation [Qobuz 16bits/44.1kHz]</b></span><br>
<br>
<img src="https://imgur.com/TGGjvty.jpg" class="bbCodeImage LbImage" alt="[​IMG]" data-url="https://imgur.com/TGGjvty.jpg" style=""><br>
<br>
<b>Tracks:</b><br>
01 - Opening (Album Version).flac<br>
02 - Pts.Of.Athrty (Jay Gordon Reanimation) (Album Version).flac<br>
03 - Enth E Nd (Kutmasta Kurt Reanimation) [feat. Motion Man] (Album Version).flac<br>
04 - [Chali] (Album Version).flac<br>
05 - Frgt_10 (Alchemist Reanimation) [feat. Chali 2na] (Album Version).flac<br>
06 - P5hng Me A_wy (Mike Shinoda Reanimation) [feat. Stephen Richards].flac<br>
07 - Plc.4 Mie Hæd (Amp Live Reanimation) [feat. Zion] (Album Version).flac<br>
08 - X-Ecutioner Style (feat. Black Thought) (Album Version).flac<br>
09 - H! Vltg3 (Evidence Reanimation) [feat. Pharoahe Monch and DJ Babu] (Album Version).flac<br>
10 - [Riff Raff] (Album Version).flac<br>
11 - Wth_You (Chairman Hahn Reanimation) [feat. Aceyalone] (Album Version).flac<br>
12 - Ntr_mssion (Album Version).flac<br>
13 - Ppr_kut (Cheapshot and Jubacca Reanimation) [feat. Rasco and Planet Asia] (Album Version).flac<br>
14 - Rnw@y (Backyard Bangers Reanimation) [feat. Phoenix Orion] (Album Version).flac<br>
15 - My_Dsmbr (Mickey P. Reanimation) [feat. Kelli Ali] (Album Version).flac<br>
16 - [Stef] (Album Version).flac<br>
17 - By_Myslf (Josh Abraham and Mike Shinoda Reanimation) (Album Version).flac<br>
18 - Kyur4 Th Ich (Chairman Hahn Reanimation) (Album Version).flac<br>
19 - 1Stp Klosr (The Humble Brothers Reanimation) [feat. Jonathan Davis] (Album Version).flac<br>
20 - Krwlng (Mike Shinoda Reanimation) [feat. Aaron Lewis] (Album Version).flac<br>
<br>
<b>Quality: Qobuz 16bits/44.1kHz<br>
Size: 422MB</b><br>
<br>
<div class="bbCodeBlock bbCodeVfcHH HiddenContent">
<div class="attribution type">Hidden Content:</div>
<blockquote>You must reply before you can see the hidden data contained here.</blockquote>
</div><b>Password: sharemania</b>
<div class="messageTextEndMarker">&nbsp;</div>
</blockquote>
</article>]]></description>
                <author><![CDATA[abby0511]]></author>
                </item>

                
                <item>
                <title><![CDATA[【Albums (lossy)】Dolby Atmos - Pabllo Vittar - Batidão Tropical, Vol. 2 (Dolby Atmos) E-AC3 JOC 5.1 768kb/s 16bits 48kHz]]></title>
                <link><![CDATA[https://sharemania.us/threads/pabllo-vittar-batid%C3%A3o-tropical-vol-2-dolby-atmos-e-ac3-joc-5-1-768kb-s-16bits-48khz.242279/]]></link>
                <description><![CDATA[<article>
<blockquote class="messageText SelectQuoteContainer ugc baseHtml">
<img src="https://thumbs2.imgbox.com/19/57/qjfhVEaw_t.jpg" class="bbCodeImage LbImage" alt="[​IMG]" data-url="https://thumbs2.imgbox.com/19/57/qjfhVEaw_t.jpg" style=""><br>
<br>
01. Pra Te Esquecer<br>
02. Idiota<br>
03. Pede Pra Eu Ficar (Listen To Your Heart)<br>
04. Rubi<br>
05. São Amores<br>
06. Me Usa<br>
07. Não Vou Te Deixar (I Don't Want To Get Hurt)<br>
08. Faixa 8<br>
09. Falta Coragem<br>
10. Faixa 10<br>
11. Nas Ondas Do Rádio<br>
12. Ai Ai Ai Mega Príncipe<br>
13. Não Desligue O Telefone<br>
14. Faixa 14<br>
<br>
Source: Apple Music<br>
<div class="bbCodeBlock bbCodeVfcHH HiddenContent">
<div class="attribution type">Hidden Content:</div>
<blockquote>You must reply before you can see the hidden data contained here.</blockquote>
</div>
<div class="messageTextEndMarker">&nbsp;</div>
</blockquote>
</article>]]></description>
                <author><![CDATA[thekiller]]></author>
                </item>

                
                <item>
                <title><![CDATA[【MASTER &amp; MASTER RIP】MASTER - Dua lipa - Illusion (Master 1080)]]></title>
                <link><![CDATA[https://sharemania.us/threads/dua-lipa-illusion-master-1080.242282/]]></link>
                <description><![CDATA[<article>
<blockquote class="messageText SelectQuoteContainer ugc baseHtml">
<div style="text-align: center"><img src="https://i.ibb.co/hLQJZP4/20240415141908.gif" class="bbCodeImage LbImage" alt="[​IMG]" data-url="https://i.ibb.co/hLQJZP4/20240415141908.gif" style=""><br>
​</div>
<div class="ToggleTriggerAnchor bbCodeSpoilerContainer">
<button type="button" class="button bbCodeSpoilerButton ToggleTrigger Tooltip JsOnly" data-target="> .SpoilerTarget"><span>Spoiler: <span class="SpoilerTitle">MASTER</span></span></button>
<div class="SpoilerTarget bbCodeSpoilerText">
<div class="bbCodeBlock bbCodeCode">
<div class="type">Code:</div>
<pre>General
Complete name                            : Dua Lipa - Illusion.mp4
Format                                   : MPEG-4
Format profile                           : Base Media
Codec ID                                 : isom (isom/iso2/avc1/mp41)
File size                                : 1.82 GiB
Duration                                 : 3 min 51 s
Overall bit rate mode                    : Variable
Overall bit rate                         : 67.4 Mb/s
Frame rate                               : 23.976 FPS
Encoded date                             : 2024-04-10 11:47:18 UTC
Tagged date                              : 2024-04-10 11:47:18 UTC
Writing application                      : Blackmagic Design DaVinci Resolve Studio

Video
ID                                       : 1
Format                                   : AVC
Format/Info                              : Advanced Video Codec
Format profile                           : High@L5.1
Format settings                          : CABAC / 2 Ref Frames
Format settings, CABAC                   : Yes
Format settings, Reference frames        : 2 frames
Format settings, GOP                     : M=2, N=24
Codec ID                                 : avc1
Codec ID/Info                            : Advanced Video Coding
Duration                                 : 3 min 51 s
Bit rate mode                            : Variable
Bit rate                                 : 66.2 Mb/s
Maximum bit rate                         : 768 kb/s
Width                                    : 3 840 pixels
Height                                   : 2 160 pixels
Display aspect ratio                     : 16:9
Frame rate mode                          : Constant
Frame rate                               : 23.976 (24000/1001) FPS
Color space                              : YUV
Chroma subsampling                       : 4:2:0
Bit depth                                : 8 bits
Scan type                                : Progressive
Bits/(Pixel*Frame)                       : 0.333
Stream size                              : 1.78 GiB (98%)
Encoded date                             : 2024-04-10 11:47:18 UTC
Tagged date                              : 2024-04-10 11:47:18 UTC
Color range                              : Limited
Color primaries                          : BT.709
Transfer characteristics                 : BT.709
Matrix coefficients                      : BT.709
Codec configuration box                  : avcC

Audio #1
ID                                       : 2
Format                                   : AAC LC
Format/Info                              : Advanced Audio Codec Low Complexity
Codec ID                                 : 2 / 40 / mp4a-40-2
Duration                                 : 3 min 51 s
Bit rate mode                            : Constant
Bit rate                                 : 320 kb/s
Channel(s)                               : 2 channels
Channel layout                           : L R
Sampling rate                            : 48.0 kHz
Frame rate                               : 46.875 FPS (1024 SPF)
Compression mode                         : Lossy
Stream size                              : 8.82 MiB (0%)
Default                                  : Yes
Alternate group                          : 1
Encoded date                             : 2024-04-10 11:47:18 UTC
Tagged date                              : 2024-04-10 11:47:18 UTC

Audio #2
ID                                       : 3
Format                                   : AAC LC
Format/Info                              : Advanced Audio Codec Low Complexity
Codec ID                                 : 2 / 40 / mp4a-40-2
Duration                                 : 3 min 51 s
Bit rate mode                            : Constant
Bit rate                                 : 320 kb/s
Channel(s)                               : 2 channels
Channel layout                           : L R
Sampling rate                            : 48.0 kHz
Frame rate                               : 46.875 FPS (1024 SPF)
Compression mode                         : Lossy
Stream size                              : 8.82 MiB (0%)
Default                                  : Yes
Alternate group                          : 2
Encoded date                             : 2024-04-10 11:47:18 UTC
Tagged date                              : 2024-04-10 11:47:18 UTC

Audio #3
ID                                       : 4
Format                                   : AAC LC
Format/Info                              : Advanced Audio Codec Low Complexity
Codec ID                                 : 2 / 40 / mp4a-40-2
Duration                                 : 3 min 51 s
Bit rate mode                            : Constant
Bit rate                                 : 320 kb/s
Channel(s)                               : 2 channels
Channel layout                           : L R
Sampling rate                            : 48.0 kHz
Frame rate                               : 46.875 FPS (1024 SPF)
Compression mode                         : Lossy
Stream size                              : 8.82 MiB (0%)
Default                                  : Yes
Alternate group                          : 3
Encoded date                             : 2024-04-10 11:47:18 UTC
Tagged date                              : 2024-04-10 11:47:18 UTC

Audio #4
ID                                       : 5
Format                                   : AAC LC
Format/Info                              : Advanced Audio Codec Low Complexity
Codec ID                                 : 2 / 40 / mp4a-40-2
Duration                                 : 3 min 51 s
Bit rate mode                            : Constant
Bit rate                                 : 320 kb/s
Channel(s)                               : 2 channels
Channel layout                           : L R
Sampling rate                            : 48.0 kHz
Frame rate                               : 46.875 FPS (1024 SPF)
Compression mode                         : Lossy
Stream size                              : 8.82 MiB (0%)
Default                                  : Yes
Alternate group                          : 4
Encoded date                             : 2024-04-10 11:47:18 UTC
Tagged date                              : 2024-04-10 11:47:18 UTC

Other
ID                                       : 6
Type                                     : Time code
Format                                   : QuickTime TC
Duration                                 : 3 min 51 s
Frame rate                               : 23.976 (24000/1001) FPS
Time code of first frame                 : 01:00:00:00
Time code of last frame                  : 01:03:50:20
Time code, stripped                      : Yes
Language                                 : English
Encoded date                             : 2024-04-10 11:47:18 UTC
Tagged date                              : 2024-04-10 11:47:18 UTC

</pre>
</div><div style="text-align: center">​</div></div>
</div><div style="text-align: center"><br>
<div class="bbCodeBlock bbCodeVfcHH HiddenContent">
<div class="attribution type">Hidden Content:</div>
<blockquote>You must reply before you can see the hidden data contained here.</blockquote>
</div></div>
<div class="messageTextEndMarker">&nbsp;</div>
</blockquote>
</article>]]></description>
                <author><![CDATA[fstambuk]]></author>
                </item>

                </channel></rss>